<svg width="27" height="27" viewBox="0 0 27 27" fill="none" xmlns="http://www.w3.org/2000/svg">
<path d="M14.2105 22.0263C14.2105 19.1842 15.7737 16.6263 18.0474 15.3474C16.2 14.6368 13.9263 14.2105 11.3684 14.2105C5.11579 14.2105 0 16.7684 0 19.8947V22.7368H14.2105V22.0263ZM22.0263 17.0526C19.3263 17.0526 17.0526 19.3263 17.0526 22.0263C17.0526 24.7263 19.3263 27 22.0263 27C24.7263 27 27 24.7263 27 22.0263C27 19.3263 24.7263 17.0526 22.0263 17.0526ZM17.0526 5.68421C17.0526 8.81053 14.4947 11.3684 11.3684 11.3684C8.2421 11.3684 5.68421 8.81053 5.68421 5.68421C5.68421 2.55789 8.2421 0 11.3684 0C14.4947 0 17.0526 2.55789 17.0526 5.68421Z" fill="black"/>
</svg>
