<svg width="35" height="39" viewBox="0 0 35 39" fill="none" xmlns="http://www.w3.org/2000/svg">
<path d="M16.625 24.4317L17.616 23.0157C17.6724 22.935 17.7442 22.8663 17.8273 22.8133C17.9104 22.7604 18.003 22.7243 18.1 22.7072C18.197 22.69 18.2964 22.6922 18.3926 22.7135C18.4887 22.7348 18.5798 22.7748 18.6605 22.8312C18.7412 22.8877 18.81 22.9595 18.8629 23.0426C18.9158 23.1256 18.9519 23.2183 18.969 23.3153C18.9862 23.4123 18.984 23.5117 18.9627 23.6079C18.9415 23.704 18.9014 23.795 18.845 23.8757L17.697 25.5157C17.6392 25.5983 17.5654 25.6684 17.48 25.7217C16.6128 26.6287 15.4494 27.1952 14.2007 27.3185C12.9519 27.4419 11.7002 27.1139 10.6724 26.394C9.64451 25.6742 8.90843 24.6101 8.59742 23.3943C8.28642 22.1786 8.42107 20.8917 8.97697 19.7667C8.99793 19.6682 9.03876 19.575 9.09697 19.4927L10.244 17.8537C10.2989 17.7695 10.3703 17.6972 10.4537 17.6411C10.5372 17.585 10.6311 17.5463 10.7298 17.5272C10.8285 17.5082 10.9301 17.5091 11.0285 17.5301C11.1268 17.5511 11.2199 17.5916 11.3023 17.6493C11.3847 17.707 11.4546 17.7806 11.5079 17.8659C11.5613 17.9511 11.5969 18.0462 11.6127 18.1456C11.6285 18.2449 11.6242 18.3463 11.6001 18.4439C11.5759 18.5416 11.5323 18.6333 11.472 18.7137L10.481 20.1317L10.487 20.1347C9.98807 20.9489 9.81857 21.9228 10.013 22.8577C10.2075 23.7925 10.7512 24.618 11.5334 25.1657C12.3156 25.7135 13.2773 25.9422 14.2223 25.8052C15.1673 25.6683 16.0245 25.176 16.619 24.4287L16.625 24.4327V24.4317ZM22.119 19.0967C22.0978 19.1952 22.057 19.2884 21.999 19.3707L20.852 21.0097C20.797 21.094 20.7257 21.1663 20.6422 21.2224C20.5588 21.2784 20.4649 21.3172 20.3661 21.3363C20.2674 21.3553 20.1658 21.3544 20.0675 21.3334C19.9691 21.3124 19.876 21.2719 19.7936 21.2142C19.7113 21.1565 19.6413 21.0829 19.588 20.9976C19.5347 20.9123 19.4991 20.8172 19.4832 20.7179C19.4674 20.6186 19.4717 20.5171 19.4959 20.4195C19.5201 20.3219 19.5636 20.2302 19.624 20.1497L20.484 18.9197C21.0462 18.1048 21.2633 17.1005 21.0879 16.1261C20.9125 15.1516 20.3588 14.2861 19.5477 13.7183C18.7366 13.1505 17.7339 12.9265 16.7583 13.0952C15.7827 13.2639 14.9133 13.8116 14.34 14.6187L13.48 15.8477C13.3659 16.0107 13.1918 16.1217 12.9959 16.1563C12.8 16.1909 12.5984 16.1463 12.4355 16.0322C12.2725 15.9182 12.1615 15.7441 12.1269 15.5482C12.0923 15.3523 12.1369 15.1507 12.251 14.9877L13.399 13.3477C13.4567 13.2652 13.5305 13.1951 13.616 13.1417C14.4832 12.2347 15.6465 11.6683 16.8953 11.545C18.1441 11.4216 19.3957 11.7496 20.4236 12.4694C21.4514 13.1893 22.1875 14.2534 22.4985 15.4691C22.8095 16.6848 22.6749 17.9717 22.119 19.0967ZM17.556 16.5647C17.6367 16.6213 17.7055 16.6931 17.7584 16.7762C17.8114 16.8593 17.8474 16.9521 17.8645 17.0491C17.8816 17.1462 17.8794 17.2456 17.858 17.3418C17.8367 17.438 17.7965 17.5291 17.74 17.6097L14.585 22.1147C14.4709 22.2777 14.2968 22.3887 14.1009 22.4233C13.905 22.4579 13.7034 22.4133 13.5405 22.2992C13.3775 22.1852 13.2665 22.0111 13.2319 21.8152C13.1973 21.6193 13.2419 21.4177 13.356 21.2547L16.511 16.7487C16.5675 16.668 16.6393 16.5992 16.7225 16.5463C16.8056 16.4933 16.8983 16.4573 16.9953 16.4402C17.0924 16.4231 17.1919 16.4253 17.288 16.4467C17.3842 16.4681 17.4753 16.5082 17.556 16.5647Z" fill="white"/>
</svg>
