<svg width="35" height="39" viewBox="0 0 35 39" fill="none" xmlns="http://www.w3.org/2000/svg">
<path d="M8.34896 19.8533C8.36828 18.2196 9.00216 16.653 10.1244 15.4656C11.2466 14.2781 12.7749 13.5568 14.405 13.4453L14.443 14.1153C11.797 14.8533 10.703 17.0933 10.569 19.4303H14.349C14.901 19.4303 14.849 19.8623 14.849 20.4163V24.9273C14.849 25.4813 14.401 25.4303 13.849 25.4303H8.84896C8.29696 25.4303 8.34896 24.9813 8.34896 24.4273V19.8533ZM16.349 19.8533C16.3683 18.2196 17.0022 16.653 18.1244 15.4656C19.2466 14.2781 20.7749 13.5568 22.405 13.4453L22.443 14.1153C19.797 14.8543 18.703 17.0943 18.57 19.4303H22.349C22.901 19.4303 22.849 19.8623 22.849 20.4163V24.9273C22.849 25.4813 22.401 25.4303 21.849 25.4303H16.849C16.297 25.4303 16.349 24.9813 16.349 24.4273V19.8533Z" fill="white"/>
</svg>
