<svg width="34" height="39" viewBox="0 0 34 39" fill="none" xmlns="http://www.w3.org/2000/svg">
<path d="M15.1362 26.4316H10.7222C10.0852 26.4316 9.63022 26.2936 9.35822 26.0166C9.08522 25.7396 8.94922 25.2986 8.94922 24.6936V14.1696C8.94922 13.5526 9.08922 13.1076 9.36822 12.8376C9.64722 12.5676 10.0982 12.4316 10.7222 12.4316H15.4022C16.0922 12.4316 16.6902 12.4726 17.1952 12.5556C17.7012 12.6386 18.1552 12.7976 18.5552 13.0336C18.8962 13.2306 19.1992 13.4806 19.4612 13.7836C19.985 14.3818 20.2724 15.1506 20.2692 15.9456C20.2692 17.3466 19.5472 18.3716 18.1022 19.0206C19.9992 19.6066 20.9492 20.7466 20.9492 22.4416C20.9578 23.1877 20.744 23.9194 20.3351 24.5435C19.9262 25.1675 19.3407 25.6557 18.6532 25.9456C18.1658 26.1358 17.656 26.2626 17.1362 26.3226C16.5652 26.3956 15.8982 26.4316 15.1362 26.4316ZM14.9192 20.2146H11.9492V24.3016H15.0182C16.9952 24.3016 17.9832 23.6116 17.9832 22.2296C17.9832 21.5226 17.7272 21.0096 17.2152 20.6926C16.7032 20.3736 15.9382 20.2146 14.9192 20.2146ZM11.9492 14.5616V18.1806H14.5552C15.2842 18.1806 15.8472 18.1136 16.2452 17.9806C16.6355 17.852 16.9614 17.5781 17.1552 17.2156C17.3202 16.9486 17.4022 16.6496 17.4022 16.3186C17.4022 15.6116 17.1422 15.1426 16.6242 14.9096C16.1052 14.6776 15.3142 14.5616 14.2492 14.5616H11.9492Z" fill="white"/>
</svg>
