<svg width="35" height="39" viewBox="0 0 35 39" fill="none" xmlns="http://www.w3.org/2000/svg">
<path d="M8.75 27.4316V25.9316H22.75V27.4316H8.75ZM10.95 19.4316V13.0316C10.95 12.6316 11.35 12.4316 11.75 12.4316C12.05 12.4316 12.45 12.6316 12.45 13.0316V19.2316C12.45 21.2316 13.75 22.0316 15.65 22.0316C17.55 22.0316 19.05 21.1316 19.05 19.1316V13.0316C19.05 12.7316 19.45 12.5316 19.85 12.5316C20.15 12.5316 20.55 12.7316 20.55 13.0316V19.4316C20.55 22.1316 18.35 23.4316 15.65 23.4316C13.05 23.4316 10.95 22.2316 10.95 19.4316Z" fill="white"/>
</svg>
