<svg width="49" height="39" viewBox="0 0 49 39" fill="none" xmlns="http://www.w3.org/2000/svg">
<path d="M17.2984 19.7316L14.8984 13.9316L12.4984 19.7316H17.2984ZM17.7984 20.9316H11.9984L10.5984 24.4316H9.09844L14.0984 12.4316H15.6984L20.6984 24.4316H19.1984L17.8984 20.9316H17.7984ZM20.8984 27.9316H8.89844C8.63322 27.9316 8.37887 27.8263 8.19133 27.6387C8.00379 27.4512 7.89844 27.1969 7.89844 26.9316C7.89844 26.6664 8.00379 26.4121 8.19133 26.2245C8.37887 26.037 8.63322 25.9316 8.89844 25.9316H20.8984C21.1637 25.9316 21.418 26.037 21.6055 26.2245C21.7931 26.4121 21.8984 26.6664 21.8984 26.9316C21.8984 27.1969 21.7931 27.4512 21.6055 27.6387C21.418 27.8263 21.1637 27.9316 20.8984 27.9316Z" fill="white"/>
<path d="M32.3403 18.955C32.2666 18.8863 32.2075 18.8035 32.1665 18.7115C32.1255 18.6195 32.1035 18.5202 32.1017 18.4195C32.0999 18.3188 32.1184 18.2187 32.1561 18.1254C32.1939 18.032 32.25 17.9471 32.3212 17.8759C32.3925 17.8047 32.4773 17.7486 32.5707 17.7108C32.6641 17.6731 32.7641 17.6546 32.8648 17.6564C32.9655 17.6581 33.0648 17.6802 33.1568 17.7212C33.2488 17.7622 33.3316 17.8213 33.4003 17.895L36.4063 20.9L39.4113 17.895C39.4799 17.8213 39.5627 17.7622 39.6547 17.7212C39.7467 17.6802 39.846 17.6581 39.9467 17.6564C40.0475 17.6546 40.1475 17.6731 40.2409 17.7108C40.3343 17.7486 40.4191 17.8047 40.4903 17.8759C40.5615 17.9471 40.6177 18.032 40.6554 18.1254C40.6931 18.2187 40.7116 18.3188 40.7099 18.4195C40.7081 18.5202 40.686 18.6195 40.6451 18.7115C40.6041 18.8035 40.545 18.8863 40.4713 18.955L36.9223 22.505C36.8423 22.5849 36.7452 22.6457 36.6384 22.6829C36.5316 22.72 36.4177 22.7325 36.3054 22.7194C36.193 22.7063 36.0851 22.668 35.9897 22.6073C35.8942 22.5466 35.8138 22.4651 35.7543 22.369L32.3403 18.955Z" fill="white"/>
</svg>
