<svg width="45" height="39" viewBox="0 0 45 39" fill="none" xmlns="http://www.w3.org/2000/svg">
<g clip-path="url(#clip0_55_137)">
<path d="M23.5191 12.4612C24.1191 12.4612 24.1091 12.4312 24.1091 13.0112V25.8512C24.1091 26.4412 24.1191 26.4112 23.5191 26.4112H6.12907C5.52907 26.4112 5.53907 26.4412 5.53907 25.8512V13.0112C5.53907 12.4312 5.52907 12.4612 6.13907 12.4612H23.5191ZM20.6091 24.4312V14.4312H9.03907V24.4312H20.6091ZM6.83907 13.4312V14.4312H7.83907V13.4312H6.83907ZM6.83907 15.4312V16.4312H7.83907V15.4312H6.83907ZM6.83907 17.4312V18.4312H7.83907V17.4312H6.83907ZM6.83907 19.4312V20.4312H7.83907V19.4312H6.83907ZM6.83907 21.4312V22.4312H7.83907V21.4312H6.83907ZM6.83907 23.4312V24.4312H7.83907V23.4312H6.83907ZM21.8391 13.4312V14.4312H22.8391V13.4312H21.8391ZM21.8391 15.4312V16.4312H22.8391V15.4312H21.8391ZM21.8391 17.4312V18.4312H22.8391V17.4312H21.8391ZM21.8391 19.4312V20.4312H22.8391V19.4312H21.8391ZM21.8391 21.4312V22.4312H22.8391V21.4312H21.8391ZM21.8391 23.4312V24.4312H22.8391V23.4312H21.8391ZM12.3391 16.6082C12.339 16.5386 12.357 16.4702 12.3914 16.4097C12.4258 16.3492 12.4754 16.2988 12.5353 16.2633C12.5952 16.2279 12.6633 16.2087 12.7329 16.2076C12.8025 16.2065 12.8711 16.2236 12.9321 16.2572L18.0651 19.0812C18.1276 19.1158 18.1797 19.1665 18.216 19.2281C18.2523 19.2896 18.2714 19.3597 18.2714 19.4312C18.2714 19.5027 18.2523 19.5728 18.216 19.6344C18.1797 19.6959 18.1276 19.7466 18.0651 19.7812L12.9321 22.6052C12.8712 22.6387 12.8026 22.6558 12.7331 22.6548C12.6636 22.6538 12.5956 22.6346 12.5358 22.5993C12.4759 22.564 12.4263 22.5137 12.3918 22.4533C12.3573 22.393 12.3391 22.3247 12.3391 22.2552V16.6082Z" fill="white"/>
</g>
<path d="M32.2817 18.955C32.208 18.8863 32.1489 18.8035 32.1079 18.7115C32.0669 18.6195 32.0449 18.5202 32.0431 18.4195C32.0413 18.3188 32.0598 18.2187 32.0976 18.1254C32.1353 18.032 32.1914 17.9471 32.2626 17.8759C32.3339 17.8047 32.4187 17.7486 32.5121 17.7108C32.6055 17.6731 32.7055 17.6546 32.8062 17.6564C32.9069 17.6581 33.0062 17.6802 33.0982 17.7212C33.1902 17.7622 33.273 17.8213 33.3417 17.895L36.3477 20.9L39.3527 17.895C39.4213 17.8213 39.5041 17.7622 39.5961 17.7212C39.6881 17.6802 39.7875 17.6581 39.8882 17.6564C39.9889 17.6546 40.0889 17.6731 40.1823 17.7108C40.2757 17.7486 40.3605 17.8047 40.4317 17.8759C40.5029 17.9471 40.5591 18.032 40.5968 18.1254C40.6345 18.2187 40.653 18.3188 40.6513 18.4195C40.6495 18.5202 40.6275 18.6195 40.5865 18.7115C40.5455 18.8035 40.4864 18.8863 40.4127 18.955L36.8637 22.505C36.7837 22.5849 36.6866 22.6457 36.5798 22.6829C36.473 22.72 36.3591 22.7325 36.2468 22.7194C36.1344 22.7063 36.0265 22.668 35.9311 22.6073C35.8356 22.5466 35.7552 22.4651 35.6957 22.369L32.2817 18.955Z" fill="white"/>
<defs>
<clipPath id="clip0_55_137">
<rect width="20" height="20" fill="white" transform="translate(4.83984 9.43164)"/>
</clipPath>
</defs>
</svg>
