<svg width="35" height="39" viewBox="0 0 35 39" fill="none" xmlns="http://www.w3.org/2000/svg">
<path d="M12.1983 19.9709C12.4583 19.7409 12.8383 19.7609 13.0783 20.0009L16.4383 23.1409L18.6683 21.0809C18.7866 20.9713 18.942 20.9104 19.1033 20.9104C19.2646 20.9104 19.42 20.9713 19.5383 21.0809L22.0583 24.0509V13.9309H8.48828V24.0509L12.1983 19.9709ZM22.4683 12.4609C23.0683 12.4609 23.5583 12.9309 23.5583 13.5109V25.3509C23.5583 25.9409 23.0683 26.4109 22.4683 26.4109H8.07828C7.47828 26.4109 6.98828 25.9409 6.98828 25.3509V13.5109C6.98828 12.9309 7.47828 12.4609 8.08828 12.4609H22.4683ZM17.2483 18.0209C17.1196 17.7977 17.0361 17.5513 17.0027 17.2958C16.9692 17.0403 16.9864 16.7807 17.0532 16.5318C17.1201 16.283 17.2353 16.0497 17.3923 15.8454C17.5493 15.641 17.745 15.4696 17.9683 15.3409C18.1915 15.2122 18.4379 15.1288 18.6934 15.0953C18.9489 15.0618 19.2085 15.079 19.4574 15.1459C19.7063 15.2127 19.9395 15.328 20.1438 15.485C20.3482 15.642 20.5196 15.8377 20.6483 16.0609C20.9082 16.5118 20.9784 17.0475 20.8433 17.5501C20.7083 18.0527 20.3791 18.481 19.9283 18.7409C19.4774 19.0009 18.9418 19.071 18.4392 18.936C17.9366 18.801 17.5082 18.4718 17.2483 18.0209Z" fill="white"/>
</svg>
