<svg width="11" height="9" viewBox="0 0 11 9" fill="none" xmlns="http://www.w3.org/2000/svg">
<path d="M3.27643 0.258543C3.24265 0.230642 3.19445 0.225364 3.15659 0.245421C3.11872 0.265477 3.0996 0.306409 3.10905 0.347195L3.80847 3.36596L0.892644 4.91038C0.854029 4.93084 0.834998 4.97293 0.845646 5.01434C0.856294 5.05575 0.894155 5.08689 0.939145 5.09122L4.2829 5.41364L4.98154 8.42903C4.99106 8.47014 5.02746 8.50185 5.07178 8.50766C5.11611 8.51348 5.15835 8.49209 5.17653 8.45462L6.54642 5.6319L9.89597 5.95488C9.94043 5.95916 9.98175 5.9363 9.99842 5.89817C10.0151 5.86005 10.0034 5.81528 9.96931 5.78716L7.47215 3.72439L8.83967 0.906554C8.85807 0.86864 8.84761 0.822994 8.81385 0.793829C8.78008 0.764664 8.73082 0.758735 8.69221 0.779189L5.77638 2.32362L3.27643 0.258543Z" fill="black" stroke="black" stroke-width="0.2" stroke-linejoin="round"/>
</svg>
