<svg width="7" height="12" viewBox="0 0 7 12" fill="none" xmlns="http://www.w3.org/2000/svg">
<path fill-rule="evenodd" clip-rule="evenodd" d="M0.146227 6.35409C0.0525929 6.26034 0 6.13325 0 6.00075C0 5.86825 0.0525929 5.74117 0.146227 5.64742L5.14623 0.64742C5.192 0.598296 5.2472 0.558894 5.30853 0.531566C5.36987 0.504238 5.43608 0.489544 5.50321 0.488359C5.57035 0.487175 5.63703 0.499524 5.69929 0.524672C5.76155 0.549819 5.81811 0.587249 5.86559 0.634728C5.91306 0.682207 5.95049 0.738763 5.97564 0.801022C6.00079 0.86328 6.01314 0.929967 6.01195 0.997102C6.01077 1.06424 5.99608 1.13045 5.96875 1.19178C5.94142 1.25311 5.90202 1.30831 5.85289 1.35409L1.20623 6.00075L5.85289 10.6474C5.90202 10.6932 5.94142 10.7484 5.96875 10.8097C5.99608 10.8711 6.01077 10.9373 6.01195 11.0044C6.01314 11.0715 6.00079 11.1382 5.97564 11.2005C5.95049 11.2627 5.91306 11.3193 5.86559 11.3668C5.81811 11.4143 5.76155 11.4517 5.69929 11.4768C5.63703 11.502 5.57035 11.5143 5.50321 11.5131C5.43608 11.512 5.36987 11.4973 5.30853 11.4699C5.2472 11.4426 5.192 11.4032 5.14623 11.3541L0.146227 6.35409Z" fill="#374151"/>
</svg>
