<svg width="7" height="12" viewBox="0 0 7 12" fill="none" xmlns="http://www.w3.org/2000/svg">
<path fill-rule="evenodd" clip-rule="evenodd" d="M6.03227 5.64591C6.1259 5.73966 6.17849 5.86675 6.17849 5.99925C6.17849 6.13175 6.1259 6.25883 6.03227 6.35258L1.03227 11.3526C0.937484 11.4409 0.81212 11.489 0.682586 11.4867C0.553052 11.4844 0.429461 11.4319 0.337853 11.3403C0.246244 11.2487 0.19377 11.1251 0.191484 10.9956C0.189199 10.8661 0.237281 10.7407 0.325601 10.6459L4.97227 5.99925L0.325601 1.35258C0.237281 1.2578 0.189199 1.13243 0.191484 1.0029C0.19377 0.873364 0.246244 0.749774 0.337853 0.658165C0.429461 0.566557 0.553052 0.514082 0.682586 0.511797C0.81212 0.509511 0.937484 0.557593 1.03227 0.645913L6.03227 5.64591Z" fill="#374151"/>
</svg>
