<svg width="18" height="17" viewBox="0 0 18 17" fill="none" xmlns="http://www.w3.org/2000/svg">
<path d="M4.91694 0.79187C4.88317 0.763969 4.83497 0.758692 4.7971 0.778748C4.75924 0.798804 4.74012 0.839736 4.74957 0.880522L6.10306 6.72234L0.46278 9.70983C0.424165 9.73028 0.405134 9.77238 0.415782 9.81379C0.42643 9.8552 0.464292 9.88633 0.509281 9.89067L6.98174 10.5148L8.33445 16.3532C8.34397 16.3943 8.38036 16.426 8.42469 16.4318C8.46901 16.4377 8.51126 16.4163 8.52944 16.3788L11.1789 10.9195L17.6571 11.5441C17.7016 11.5484 17.7429 11.5256 17.7596 11.4874C17.7763 11.4493 17.7645 11.4045 17.7305 11.3764L12.8954 7.38246L15.5425 1.92801C15.5609 1.8901 15.5505 1.84445 15.5167 1.81529C15.4829 1.78612 15.4337 1.78019 15.3951 1.80065L9.75478 4.78814L4.91694 0.79187Z" fill="black" stroke="black" stroke-width="0.2" stroke-linejoin="round"/>
</svg>
