<svg width="16" height="16" viewBox="0 0 16 16" fill="none" xmlns="http://www.w3.org/2000/svg">
<path d="M2.79961 2.19961C2.79961 2.04048 2.7364 1.88787 2.62387 1.77535C2.51135 1.66282 2.35874 1.59961 2.19961 1.59961C2.04048 1.59961 1.88787 1.66282 1.77535 1.77535C1.66282 1.88787 1.59961 2.04048 1.59961 2.19961V13.7996C1.59961 13.9587 1.66282 14.1114 1.77535 14.2239C1.88787 14.3364 2.04048 14.3996 2.19961 14.3996C2.35874 14.3996 2.51135 14.3364 2.62387 14.2239C2.7364 14.1114 2.79961 13.9587 2.79961 13.7996V10.286L4.12521 10.0076C5.28292 9.76387 6.48923 9.92542 7.54201 10.4652C9.0172 11.2217 10.7295 11.3721 12.314 10.8844L13.9764 10.3724C14.0989 10.3346 14.206 10.2587 14.2822 10.1556C14.3583 10.0525 14.3995 9.92776 14.3996 9.79961V2.99961C14.3996 2.91036 14.3797 2.82224 14.3413 2.74166C14.303 2.66109 14.2471 2.59009 14.1778 2.53383C14.1085 2.47758 14.0276 2.43748 13.9408 2.41648C13.8541 2.39547 13.7638 2.39408 13.6764 2.41241L11.7724 2.81321C10.6519 3.04909 9.48674 2.94804 8.42361 2.52281L8.02201 2.36281C6.73877 1.84921 5.3322 1.72701 3.97961 2.01161L2.79961 2.25961V2.19961Z" fill="#111827"/>
</svg>
