<svg width="16" height="16" viewBox="0 0 16 16" fill="none" xmlns="http://www.w3.org/2000/svg">
<path fill-rule="evenodd" clip-rule="evenodd" d="M7.99961 14.3996C9.697 14.3996 11.3249 13.7253 12.5251 12.5251C13.7253 11.3249 14.3996 9.697 14.3996 7.99961C14.3996 6.30222 13.7253 4.67436 12.5251 3.47413C11.3249 2.27389 9.697 1.59961 7.99961 1.59961C6.30222 1.59961 4.67436 2.27389 3.47413 3.47413C2.27389 4.67436 1.59961 6.30222 1.59961 7.99961C1.59961 9.697 2.27389 11.3249 3.47413 12.5251C4.67436 13.7253 6.30222 14.3996 7.99961 14.3996ZM8.59961 3.99961C8.59961 3.84048 8.5364 3.68787 8.42387 3.57535C8.31135 3.46282 8.15874 3.39961 7.99961 3.39961C7.84048 3.39961 7.68787 3.46282 7.57535 3.57535C7.46282 3.68787 7.39961 3.84048 7.39961 3.99961V7.99961C7.39961 8.33081 7.66841 8.59961 7.99961 8.59961H11.1996C11.3587 8.59961 11.5114 8.5364 11.6239 8.42387C11.7364 8.31135 11.7996 8.15874 11.7996 7.99961C11.7996 7.84048 11.7364 7.68787 11.6239 7.57535C11.5114 7.46282 11.3587 7.39961 11.1996 7.39961H8.59961V3.99961Z" fill="#111827"/>
</svg>
